<svg preserveAspectRatio="xMidYMid meet" viewBox="0 0 147.117 18.969" fill="none" xmlns="http://www.w3.org/2000/svg">
<g id="&#196;&#144;&#195;&#148;NG PH&#195;&#154; GIA">
<path id="Vector" d="M135.129 18.969H131.717L137.351 3.92825H141.482L147.116 18.969H143.592L142.402 15.6241H136.341L135.129 18.969ZM138.474 9.67516L137.306 12.9078H141.414L140.27 9.67516L139.372 6.48742L138.474 9.67516Z" fill="var(--fill-0, #44A0BA)"/>
<path id="Vector_2" d="M130.391 18.969H127.181V3.92825H130.391V18.969Z" fill="var(--fill-0, #44A0BA)"/>
<path id="Vector_3" d="M117.847 18.969C114.275 18.969 111.701 16.373 111.701 11.3364C111.701 6.92103 114.386 3.7038 119.178 3.7038C122.329 3.7038 124.703 5.1682 125.746 7.63104L123.061 9.67232C122.662 8.00824 121.331 6.74353 119.178 6.74353C116.427 6.74353 115.118 8.60731 115.118 11.3364C115.118 14.1986 116.56 15.9737 119.09 15.9737C121.153 15.9737 122.218 14.953 122.817 13.3777H118.735V10.8261H125.857V18.959H123.749L122.995 13.3777C122.839 16.8834 121.02 18.969 117.847 18.969Z" fill="var(--fill-0, #44A0BA)"/>
<path id="Vector_4" d="M101.246 2.48484H98.6727L100.337 4.57764e-06H104.042L101.246 2.48484ZM100.115 18.969C95.966 18.969 93.8584 16.8836 93.8584 12.2245V3.88256H97.031V12.2689C97.031 14.8424 98.0072 15.9074 100.137 15.9074C102.311 15.9074 103.221 14.8424 103.221 12.2689V3.88256H106.393V12.2245C106.393 16.8836 104.352 18.969 100.115 18.969Z" fill="var(--fill-0, #44A0BA)"/>
<path id="Vector_5" d="M82.9038 18.968H79.6939V3.92825H82.9038V9.94413H89.3238V3.92825H92.5337V18.968H89.3238V12.7949H82.9038V18.968Z" fill="var(--fill-0, #44A0BA)"/>
<path id="Vector_6" d="M69.2278 18.968H66.0178V3.92825H72.2582C75.7151 3.92825 78.3639 5.52201 78.3639 9.31561C78.3639 13.0194 75.76 14.6132 72.2582 14.6132H69.2278V18.968ZM72.1459 6.77906H69.2278V11.7624H72.1459C73.8071 11.7624 74.9968 11.0889 74.9968 9.31561C74.9968 7.43003 73.8071 6.77906 72.1459 6.77906Z" fill="var(--fill-0, #44A0BA)"/>
<path id="Vector_7" d="M52.5967 18.969C49.0245 18.969 46.4507 16.373 46.4507 11.3364C46.4507 6.92103 49.1354 3.7038 53.928 3.7038C57.0787 3.7038 59.4528 5.1682 60.4956 7.63104L57.8109 9.67232C57.4115 8.00824 56.0802 6.74353 53.928 6.74353C51.1767 6.74353 49.8676 8.60731 49.8676 11.3364C49.8676 14.1986 51.3098 15.9737 53.8393 15.9737C55.9027 15.9737 56.9677 14.953 57.5668 13.3777H53.4843V10.8261H60.6065L60.6049 18.959H58.497L57.7443 13.3777C57.589 16.8834 55.7696 18.969 52.5967 18.969Z" fill="var(--fill-0, #44A0BA)"/>
<path id="Vector_8" d="M35.4962 18.968H32.2862V3.92825H35.4064L40.7488 11.7848L42.1181 14.1418L41.9161 10.5951V3.92825H45.1261V18.968H42.0732L36.5961 11.0441L35.2492 8.82177L35.4962 12.548V18.968Z" fill="var(--fill-0, #44A0BA)"/>
<path id="Vector_9" d="M22.5634 2.48775H19.9868L22.0525 4.57764e-06H24.8734L26.9391 2.48775H24.3625L23.4741 1.2883L22.5634 2.48775ZM23.4741 18.969C19.0317 18.969 15.9886 15.615 15.9886 11.3059C15.9886 7.01899 19.0317 3.66498 23.4741 3.66498C27.9165 3.66498 30.9595 7.01899 30.9595 11.3059C30.9595 15.615 27.9165 18.969 23.4741 18.969ZM23.4741 15.8816C26.2283 15.8816 27.6055 13.9713 27.6055 11.3059C27.6055 8.66268 26.2283 6.73023 23.4741 6.73023C20.742 6.73023 19.3426 8.66268 19.3426 11.3059C19.3426 13.9713 20.742 15.8816 23.4741 15.8816Z" fill="var(--fill-0, #44A0BA)"/>
<path id="Vector_10" d="M7.45534 18.9671H1.37211V12.7043H0V10.1902H1.37211V3.92736H7.41044C11.9897 3.92736 14.6609 6.9353 14.6609 11.4472C14.6609 15.9591 12.0121 18.9671 7.45534 18.9671ZM8.06142 12.7043H4.58208V16.1163H7.18597C9.94699 16.1163 11.2938 14.5225 11.2938 11.4472C11.2938 8.37193 9.92455 6.77817 7.14108 6.77817H4.58208V10.1902H8.06142V12.7043Z" fill="var(--fill-0, #44A0BA)"/>
</g>
</svg>
