<svg preserveAspectRatio="xMidYMid meet" viewBox="0 0 59.1527 6.87016" fill="none" xmlns="http://www.w3.org/2000/svg">
<g id="&#196;&#144;&#225;&#187;&#147;ng h&#195;&#160;nh - Ph&#195;&#161;t tri&#225;&#187;&#131;n">
<path id="Vector" d="M57.0924 5.60832H56.5323V2.4921H57.0924V3.32266C57.2147 2.83978 57.5495 2.42772 58.1612 2.42772C58.7728 2.42772 59.1527 2.79471 59.1527 3.45787V5.60832H58.599V3.59308C58.599 3.18746 58.438 2.90416 57.9101 2.90416C57.3113 2.90416 57.0924 3.32266 57.0924 3.84418V5.60832Z" fill="var(--fill-0, #44A0BA)"/>
<path id="Vector_2" d="M54.7722 0.78551C54.8409 0.879942 54.9139 0.976521 54.9911 1.07525C55.0684 1.17397 55.1457 1.27055 55.2229 1.36498C55.3045 1.45942 55.3817 1.54741 55.4547 1.62897V1.70623H55.0813C54.974 1.63326 54.8645 1.55385 54.7529 1.468C54.6413 1.37786 54.5297 1.28343 54.4181 1.1847C54.3065 1.28343 54.1949 1.37786 54.0833 1.468C53.9717 1.55385 53.8622 1.63326 53.7549 1.70623H53.3815V1.62897C53.4545 1.54741 53.5296 1.45942 53.6068 1.36498C53.6884 1.27055 53.7678 1.17397 53.8451 1.07525C53.9266 0.976521 53.9996 0.879942 54.064 0.78551H54.7722ZM55.3968 0C55.5942 0 55.7466 0.0364855 55.8539 0.109456C55.9655 0.182427 56.0213 0.296176 56.0213 0.450702C56.0213 0.575182 55.9827 0.671761 55.9054 0.740439C55.8325 0.804825 55.7402 0.849896 55.6286 0.87565L55.6092 1.10744H55.3002L55.268 0.714685C55.4011 0.697515 55.4976 0.671761 55.5577 0.637422C55.6178 0.603083 55.6479 0.551574 55.6479 0.482895C55.6479 0.418509 55.6221 0.373439 55.5706 0.347685C55.5191 0.317638 55.4483 0.302614 55.3581 0.302614C55.3152 0.302614 55.2723 0.304761 55.2294 0.309053C55.1907 0.309053 55.1585 0.313346 55.1328 0.32193V0.0193159C55.1585 0.010731 55.1929 0.00643849 55.2358 0.00643849C55.283 0.00214615 55.3367 0 55.3968 0ZM54.4503 2.07323C54.7551 2.07323 55.0169 2.13762 55.2358 2.26639C55.4547 2.39087 55.6221 2.57115 55.738 2.80723C55.8582 3.04331 55.9183 3.32232 55.9183 3.64425V4.01769H53.5875C53.5961 4.37396 53.6884 4.64653 53.8644 4.83539C54.0447 5.02426 54.2958 5.11869 54.6177 5.11869C54.8409 5.11869 55.0384 5.09937 55.2101 5.06074C55.386 5.01782 55.5663 4.95558 55.7509 4.87402V5.44062C55.5792 5.51788 55.4032 5.57583 55.2229 5.61446C55.0469 5.65309 54.8366 5.67241 54.5919 5.67241C54.2571 5.67241 53.961 5.60588 53.7034 5.47281C53.4459 5.33975 53.2441 5.1423 53.0982 4.88046C52.9565 4.61433 52.8857 4.28811 52.8857 3.90179C52.8857 3.51119 52.9501 3.18067 53.0789 2.91025C53.2119 2.63983 53.3944 2.43379 53.6262 2.29214C53.8622 2.1462 54.137 2.07323 54.4503 2.07323ZM54.4503 2.6012C54.2056 2.6012 54.0082 2.68061 53.8579 2.83942C53.712 2.99824 53.6262 3.22359 53.6004 3.51548H55.2358C55.2358 3.3352 55.2079 3.17638 55.1521 3.03902C55.0963 2.90166 55.0105 2.79435 54.8946 2.71709C54.7787 2.63983 54.6306 2.6012 54.4503 2.6012Z" fill="var(--fill-0, #44A0BA)"/>
<path id="Vector_3" d="M52.2624 1.98972H51.7023V1.29436H52.2624V1.98972ZM52.2624 5.60813H51.7023V2.49192H52.2624V5.60813Z" fill="var(--fill-0, #44A0BA)"/>
<path id="Vector_4" d="M49.6745 5.60836H49.1144V2.49214H49.6745V3.32271C49.7969 2.83982 50.1188 2.42132 50.6467 2.42132C50.9815 2.42132 51.3035 2.65954 51.3035 3.09736C51.3035 3.36134 51.2326 3.55449 51.1811 3.63175H50.5695C50.6725 3.54161 50.7562 3.34846 50.7562 3.17462C50.7562 2.99434 50.6596 2.83982 50.4343 2.83982C50.0351 2.83982 49.6745 3.30983 49.6745 3.84422V5.60836Z" fill="var(--fill-0, #44A0BA)"/>
<path id="Vector_5" d="M47.9719 5.67898C47.4632 5.67898 47.1027 5.34418 47.1027 4.80979V2.92976H46.6005V2.49194H47.1027V2.09276L47.6628 1.6807V2.49194H48.6865V2.92976H47.6628V4.64239C47.6628 5.04157 47.8495 5.13815 48.0942 5.13815C48.3711 5.13815 48.5642 4.90636 48.6479 4.71321L48.8346 5.26692C48.6994 5.47938 48.4032 5.67898 47.9719 5.67898Z" fill="var(--fill-0, #44A0BA)"/>
<path id="Vector_6" d="M44.3996 5.67898C43.891 5.67898 43.5305 5.34418 43.5305 4.80979V2.92976H43.0283V2.49194H43.5305V2.09276L44.0906 1.6807V2.49194H45.1143V2.92976H44.0906V4.64239C44.0906 5.04157 44.2773 5.13815 44.522 5.13815C44.7988 5.13815 44.992 4.90636 45.0757 4.71321L45.2624 5.26692C45.1272 5.47938 44.831 5.67898 44.3996 5.67898Z" fill="var(--fill-0, #44A0BA)"/>
<path id="Vector_7" d="M41.6623 2.08628H41.1343L41.6623 1.32654H42.3963L41.6623 2.08628ZM40.9283 5.6725C40.4003 5.6725 40.1042 5.36989 40.1042 4.95783C40.1042 4.53933 40.4197 4.27535 40.8639 4.07576L41.9906 3.57356C41.9713 3.20657 41.7975 2.93615 41.3082 2.93615C40.8639 2.93615 40.5677 3.19369 40.4068 3.53493L40.0269 3.14219C40.2136 2.82026 40.6772 2.42752 41.3726 2.42752C42.1387 2.42752 42.5508 2.88465 42.5508 3.62507V4.90632C42.5508 5.05441 42.6087 5.09948 42.7246 5.09948H42.9242V5.60811H42.5637C42.2417 5.60811 42.01 5.45359 42.01 5.01578V4.79687C41.9069 5.20893 41.5721 5.6725 40.9283 5.6725ZM40.6708 4.86769C40.6708 5.08016 40.8188 5.20893 41.1086 5.20893C41.6365 5.20893 42.01 4.86125 42.01 4.41056V3.97918L41.1021 4.40412C40.806 4.54577 40.6708 4.67454 40.6708 4.86769Z" fill="var(--fill-0, #44A0BA)"/>
<path id="Vector_8" d="M37.5084 5.60813H36.9483V1.29436H37.5084V3.32248C37.6307 2.83959 37.9655 2.42753 38.5772 2.42753C39.1888 2.42753 39.5687 2.79452 39.5687 3.45768V5.60813H39.015V3.59289C39.015 3.18727 38.854 2.90398 38.3261 2.90398C37.7273 2.90398 37.5084 3.32248 37.5084 3.84399V5.60813Z" fill="var(--fill-0, #44A0BA)"/>
<path id="Vector_9" d="M33.8026 5.60813H33.2424V1.29436H34.9679C35.8178 1.29436 36.4874 1.76437 36.4874 2.75589C36.4874 3.67659 35.8178 4.1466 34.9679 4.1466H33.8026V5.60813ZM34.8778 1.79012H33.8026V3.65084H34.8778C35.3993 3.65084 35.908 3.45768 35.908 2.75589C35.908 1.98328 35.3993 1.79012 34.8778 1.79012Z" fill="var(--fill-0, #44A0BA)"/>
<path id="Vector_10" d="M31.3045 3.96677H29.785V3.57402H31.3045V3.96677Z" fill="var(--fill-0, #44A0BA)"/>
<path id="Vector_11" d="M25.8705 5.60813H25.3104V1.29436H25.8705V3.32248C25.9929 2.83959 26.3277 2.42753 26.9393 2.42753C27.551 2.42753 27.9308 2.79452 27.9308 3.45768V5.60813H27.3771V3.59289C27.3771 3.18727 27.2162 2.90398 26.6882 2.90398C26.0894 2.90398 25.8705 3.32248 25.8705 3.84399V5.60813Z" fill="var(--fill-0, #44A0BA)"/>
<path id="Vector_12" d="M22.5468 5.60832H21.9867V2.4921H22.5468V3.32266C22.6692 2.83978 23.004 2.42772 23.6156 2.42772C24.2273 2.42772 24.6071 2.79471 24.6071 3.45787V5.60832H24.0534V3.59308C24.0534 3.18746 23.8925 2.90416 23.3645 2.90416C22.7657 2.90416 22.5468 3.32266 22.5468 3.84418V5.60832Z" fill="var(--fill-0, #44A0BA)"/>
<path id="Vector_13" d="M20.288 2.08628H19.76L19.026 1.32654H19.76L20.288 2.08628ZM19.4703 5.6725C18.9423 5.6725 18.6462 5.36989 18.6462 4.95783C18.6462 4.53933 18.9617 4.27535 19.4059 4.07576L20.5326 3.57356C20.5133 3.20657 20.3395 2.93615 19.8502 2.93615C19.4059 2.93615 19.1097 3.19369 18.9488 3.53493L18.5689 3.14219C18.7556 2.82026 19.2192 2.42752 19.9145 2.42752C20.6807 2.42752 21.0928 2.88465 21.0928 3.62507V4.90632C21.0928 5.05441 21.1507 5.09948 21.2666 5.09948H21.4662V5.60811H21.1057C20.7837 5.60811 20.552 5.45359 20.552 5.01578V4.79687C20.4489 5.20893 20.1141 5.6725 19.4703 5.6725ZM19.2128 4.86769C19.2128 5.08016 19.3608 5.20893 19.6506 5.20893C20.1785 5.20893 20.552 4.86125 20.552 4.41056V3.97918L19.6441 4.40412C19.348 4.54577 19.2128 4.67454 19.2128 4.86769Z" fill="var(--fill-0, #44A0BA)"/>
<path id="Vector_14" d="M16.0504 5.60813H15.4902V1.29436H16.0504V3.32248C16.1727 2.83959 16.5075 2.42753 17.1192 2.42753C17.7308 2.42753 18.1107 2.79452 18.1107 3.45768V5.60813H17.557V3.59289C17.557 3.18727 17.396 2.90398 16.8681 2.90398C16.2693 2.90398 16.0504 3.32248 16.0504 3.84399V5.60813Z" fill="var(--fill-0, #44A0BA)"/>
<path id="Vector_15" d="M12.2921 4.65532C12.0668 4.65532 11.8607 4.61025 11.6869 4.52655C11.6096 4.62956 11.5195 4.77765 11.5195 4.91285C11.5195 5.08025 11.6096 5.16395 11.9316 5.16395H12.8716C13.4382 5.16395 13.7923 5.3893 13.7923 5.85931C13.7923 6.45164 13.2128 6.87014 12.1634 6.87014C11.365 6.87014 10.8628 6.60617 10.8628 6.19411C10.8628 5.90438 11.1268 5.73054 11.365 5.63396C11.1654 5.56958 11.0624 5.42149 11.0624 5.21546C11.0624 4.9708 11.2491 4.70038 11.5517 4.45572C11.2427 4.26257 11.0624 3.93421 11.0624 3.54146C11.0624 2.89118 11.5581 2.42761 12.2921 2.42761C12.4982 2.42761 12.6849 2.46624 12.8458 2.53062L13.039 1.78376L13.6184 1.98979L13.0454 2.63364C13.3416 2.82679 13.5219 3.15515 13.5219 3.54146C13.5219 4.19175 13.0261 4.65532 12.2921 4.65532ZM12.2921 4.22394C12.6849 4.22394 12.981 3.9664 12.981 3.54146C12.981 3.11652 12.6849 2.85899 12.2921 2.85899C11.9058 2.85899 11.6032 3.11652 11.6032 3.54146C11.6032 3.9664 11.9058 4.22394 12.2921 4.22394ZM12.1634 6.42589C12.8716 6.42589 13.2708 6.24561 13.2708 5.93657C13.2708 5.73698 13.1162 5.64684 12.8008 5.64684H11.5259C11.4229 5.73698 11.3135 5.87218 11.3135 6.02027C11.3135 6.27137 11.6032 6.42589 12.1634 6.42589Z" fill="var(--fill-0, #44A0BA)"/>
<path id="Vector_16" d="M8.34949 5.60832H7.78935V2.4921H8.34949V3.32266C8.47182 2.83978 8.80662 2.42772 9.41828 2.42772C10.0299 2.42772 10.4098 2.79471 10.4098 3.45787V5.60832H9.85609V3.59308C9.85609 3.18746 9.69513 2.90416 9.16718 2.90416C8.5684 2.90416 8.34949 3.32266 8.34949 3.84418V5.60832Z" fill="var(--fill-0, #44A0BA)"/>
<path id="Vector_17" d="M7.78091 1.29802H7.25296L6.51897 0.538287H7.25296L7.78091 1.29802Z" fill="var(--fill-0, #44A0BA)"/>
<path id="Vector_18" d="M5.52735 2.08628H5.00584L5.62393 1.32654H6.11969L6.73778 2.08628H6.21627L5.87503 1.64202L5.52735 2.08628ZM5.86859 5.6725C5.00584 5.6725 4.40062 5.03509 4.40062 4.05001C4.40062 3.06492 5.00584 2.42752 5.86859 2.42752C6.73135 2.42752 7.343 3.06492 7.343 4.05001C7.343 5.03509 6.73135 5.6725 5.86859 5.6725ZM5.86859 5.20249C6.40298 5.20249 6.77641 4.8355 6.77641 4.05001C6.77641 3.25808 6.40298 2.89752 5.86859 2.89752C5.34064 2.89752 4.97365 3.25808 4.97365 4.05001C4.97365 4.8355 5.34064 5.20249 5.86859 5.20249Z" fill="var(--fill-0, #44A0BA)"/>
<path id="Vector_19" d="M1.95909 5.60793H0.433177V3.66996H0V3.23214H0.433177V1.29417H1.95909C3.31761 1.29417 3.99364 2.0861 3.99364 3.45105C3.99364 4.816 3.31761 5.60793 1.95909 5.60793ZM2.31964 3.66996H0.993323V5.11217H1.86895C2.8476 5.11217 3.41418 4.68079 3.41418 3.45105C3.41418 2.2213 2.8476 1.78993 1.86895 1.78993H0.993323V3.23214H2.31964V3.66996Z" fill="var(--fill-0, #44A0BA)"/>
</g>
</svg>
