<svg preserveAspectRatio="xMidYMid meet" viewBox="0 0 19.0291 28.4866" fill="none" xmlns="http://www.w3.org/2000/svg">
<path id="Exclude" d="M19.0291 0.000235319C19.0138 1.51554 17.7788 2.73507 16.2634 2.7307L9.51539 2.71117C9.51539 2.71117 6.61108 2.54472 4.45387 4.92309C2.54555 6.96968 2.65601 9.51488 2.65601 9.51488V16.4006H5.43238L5.42164 9.51488C5.43697 7.29134 7.2362 5.49203 9.45973 5.4768H9.51539L18.0886 5.50414C18.0886 5.50414 18.3928 5.89142 18.697 7.24633C19.0013 8.60151 19.0291 9.51488 19.0291 9.51488C19.029 9.56307 19.0113 13.8723 15.8211 16.595C12.8895 19.2499 9.50758 19.0286 9.50758 19.0286H8.15406L8.16871 25.762C8.172 27.2659 6.95388 28.4864 5.44996 28.4866L5.43629 19.0286H0.00171744V9.51488C0.00171744 9.51488 -0.164268 5.72517 2.76734 2.84887C5.61595 -0.0823901 9.51539 0.000235319 9.51539 0.000235319H19.0291ZM9.45973 8.18676C8.72664 8.18686 8.13258 8.78178 8.13258 9.51488V16.4006C8.16074 16.4041 11.93 16.8616 14.2996 14.3899C15.9588 12.7504 16.2893 10.88 16.3181 9.51488C16.3344 8.74042 16.1804 8.18676 16.1804 8.18676H9.45973Z" fill="var(--fill-0, #44A0BA)"/>
</svg>
