<svg id="Layer_1" data-name="Layer 1" xmlns="http://www.w3.org/2000/svg" viewBox="0 0 792.97 190.73"><defs><style>.cls-1{fill:#f2623b;}.cls-2{fill:#737476;}.cls-3{fill:#98999a;}.cls-4{fill:#bebfc1;}</style></defs><path class="cls-1" d="M673.72,94.4c2-4.64,3.85-8.91,5.68-13.19,10.22-24,20.48-48,30.6-72.11A13,13,0,0,1,720,.78a32.36,32.36,0,0,1,16,.57,12.93,12.93,0,0,1,8.42,7.85q14.6,34.3,29.32,68.56,8.94,20.88,17.89,41.77a18.35,18.35,0,0,1,1.35,4.38,3.09,3.09,0,0,1-3,3.91c-5.36.34-10.75.72-16.11.61-3.89-.07-6.57-2.47-8-6.08q-8.46-20.64-16.92-41.28c-6-14.79-12.06-29.61-18.14-44.39-.67-1.63-1.34-3.81-3.46-3.77s-2.87,2.26-3.55,4c-5.9,14.72-11.71,29.46-17.58,44.18-5,12.46-9.88,24.93-15,37.32a17.83,17.83,0,0,1-7.58,8.71,13.39,13.39,0,0,1-5.14,1.42c-2,.24-4.06-.07-6.07.09-4.68.36-8.21-1.73-11.25-5a28.83,28.83,0,0,1-5.58-9q-15-36.94-30.28-73.82a50,50,0,0,0-2.83-6.28c-1.34-2.3-3.28-2.33-4.47,0C616,38.2,614.51,42,613,45.85Q597.6,83.92,582.27,122c-1.83,4.54-4.81,6.54-9.67,6.57-3.84,0-7.68,0-11.53,0-5.68,0-7.46-2.67-5.24-8q9-21.52,18.17-43l27.82-65.76c.38-.9.83-1.78,1.15-2.7A12.15,12.15,0,0,1,612.89.82c6.42-1.18,12.88-1.47,18.75,1.91a12.25,12.25,0,0,1,4.85,5.21c5.23,11.65,10.17,23.44,15.18,35.18q10.53,24.66,21,49.32C672.92,93,673.24,93.5,673.72,94.4Z"/><path class="cls-1" d="M406.89,63.59v-52C406.89,2.66,409.63,0,418.51,0Q445.75.11,473,.13c11,0,21.78,1.37,31.93,5.79,21.94,9.55,34.28,26.29,36.83,50.13,1.17,10.91.43,21.66-3.31,32-6.57,18.23-19.47,30.07-37.57,36.45a75.33,75.33,0,0,1-25.34,4c-19.84-.06-39.68-.26-59.52-.44-5.37-.05-8.52-3.14-9-8.74-.14-1.53-.1-3.08-.1-4.61Q406.89,89.16,406.89,63.59Zm27.13.35q0,15.5,0,31c0,5.26,2.09,7.45,7.32,7.49,11.66.11,23.33.33,35,.09a45.3,45.3,0,0,0,13.57-2.14c15.17-5.18,23.63-16.06,25.1-32,1-10.43-1.09-20.21-8.2-28.36-8.47-9.71-19.49-13.92-32.13-14.16-11-.22-21.92-.17-32.88-.21-5.56,0-7.76,2.2-7.76,7.74Q434,48.65,434,63.94Z"/><path class="cls-1" d="M319.65,0h54.48C382,0,385.66,3.41,385.94,11.2A26.51,26.51,0,0,1,385,19c-1,3.65-3.82,5.55-7.53,6a30.86,30.86,0,0,1-4,.26c-10.27,0-20.54,0-30.81,0-7.43,0-10.95,3.46-11,10.88q0,39.81,0,79.63a25,25,0,0,1-.28,4,8.69,8.69,0,0,1-6.67,7.51,23.84,23.84,0,0,1-13,0,9.45,9.45,0,0,1-7-8.91c-.1-1.39-.1-2.8-.1-4.19V35.65c0-.28,0-.56,0-.84-.17-6.23-3.21-9.23-9.42-9.22-6.92,0-13.83.11-20.75.13-4.26,0-8.53.15-12.77-.16-4.52-.34-8.25-2.3-9.8-6.94a16,16,0,0,1,.65-12.44c1.81-3.73,5.18-5.38,9.09-5.9a54.68,54.68,0,0,1,6.9-.25Z"/><path class="cls-2" d="M159.2,127.21c3.44-1.1,5.38-3.49,6.67-6.63Q182.4,80.2,199,39.83A40.43,40.43,0,0,1,201.72,34c1.17-1.91,2.66-1.88,4,0a17.32,17.32,0,0,1,2,3.68c10.53,26.37,21,52.77,31.58,79.12a19.12,19.12,0,0,0,10.15,10.46Z"/><path class="cls-1" d="M106.32.39h89a76.81,76.81,0,0,0-6.67,6.51,23.84,23.84,0,0,0-3.46,6.4q-14.91,37.23-29.7,74.51a44.24,44.24,0,0,1-2.46,5.54c-1.37,2.4-3.31,2.46-4.6,0-1.56-2.95-2.77-6.09-4-9.18q-15.52-37.89-31-75.79C112,4.9,110.26,1.71,106.32.39Z"/><path class="cls-3" d="M143.24,127.27H53.91c4.4-1.61,5.62-5.61,7.17-9.39q16-39,32-78A38.38,38.38,0,0,1,95.86,34c1.12-1.82,2.59-1.8,3.84-.06a18.54,18.54,0,0,1,2,3.88Q117.33,77,132.92,116.19A20.83,20.83,0,0,0,143.24,127.27Z"/><path class="cls-4" d="M88.46.65c-6.9,3.61-9.43,10.08-12,16.62Q62.47,52.6,48.3,87.84a38.55,38.55,0,0,1-2.39,5.32c-1.36,2.31-3,2.35-4.2,0-1.8-3.62-3.29-7.39-4.82-11.13Q21.52,44.52,6.19,7A10.51,10.51,0,0,0,0,.65Z"/><path class="cls-3" d="M604.69,160.52v29.17h-8.47c0-.78-.1-1.52-.1-2.27,0-13.62,0-27.25,0-40.87,0-2.09.75-2.3,2.61-2.59,4.93-.75,7.61,1.25,10,5.53,4.22,7.71,9.14,15,13.77,22.51a5.18,5.18,0,0,0,1.85,1.85v-2.39c0-8.39,0-16.77,0-25.15,0-1.71.45-2.44,2.24-2.28a30.83,30.83,0,0,0,4.61,0c1.41-.08,1.85.55,1.76,1.86-.06,1,0,2,0,2.93v41c-3,0-5.81.08-8.64-.06-.55,0-1.18-.87-1.55-1.46q-8.19-13-16.3-26.14l-1.13-1.75Z"/><path class="cls-3" d="M660.86,166.9c0-6.36,0-12.72,0-19.07,0-4.4-.39-3.74,3.85-3.75,5.79,0,11.59,0,17.38.18,7.51.24,12.74,4.11,15.32,11a31.49,31.49,0,0,1-.44,24.49c-2.78,6.3-7.91,9.54-14.63,9.89s-13.27.13-19.9.23c-1.59,0-1.59-.91-1.59-2Q660.87,177.38,660.86,166.9Zm9.35,15.54c4.37-.24,8.61-.28,12.8-.8a6.44,6.44,0,0,0,5.32-4.51,30.06,30.06,0,0,0,.36-19.09c-.8-2.67-2.58-5-5.34-5.44-4.26-.74-8.64-.86-13.14-1.25Z"/><path class="cls-3" d="M544.73,189.85c1.64-4.21,3.12-8,4.61-11.84,4.14-10.6,8.31-21.18,12.39-31.79.61-1.59,1.41-2.35,3.2-2.2a49.8,49.8,0,0,0,5.86,0,2.12,2.12,0,0,1,2.35,1.54q8.49,21.18,17.07,42.32c.2.5.36,1,.67,1.91-3.24,0-6.27.05-9.28-.06-.39,0-.88-.8-1.09-1.32-1-2.39-1.94-4.79-2.77-7.23a2.3,2.3,0,0,0-2.56-1.85q-7.44.12-14.87,0a2.28,2.28,0,0,0-2.62,1.76c-.81,2.45-1.81,4.84-2.64,7.28a1.86,1.86,0,0,1-2.14,1.47C550.34,189.79,547.77,189.85,544.73,189.85Zm23-34.54-.6,0c-2,5.37-3.93,10.73-6,16.27h12.71C571.81,166,569.79,160.66,567.78,155.31Z"/><path class="cls-3" d="M502.64,161.08c0-5,0-10.06,0-15.09,0-1.45.42-2,1.89-2a43.62,43.62,0,0,0,5.24,0c1.72-.12,2.27.45,2.26,2.23-.08,8.94-.09,17.88,0,26.82.09,7.92,5.87,11.82,13.38,9.12a6.54,6.54,0,0,0,4.45-6.48c.16-5.37.21-10.75.25-16.13,0-4.54.06-9.08,0-13.62,0-1.45.46-2,1.93-1.94,1.88.09,3.77,0,5.65,0,1.08,0,1.69.26,1.67,1.52-.13,10.54.07,21.1-.45,31.62-.39,7.88-5.22,12.48-13.1,13.23a45.5,45.5,0,0,1-10.43-.23c-7.3-1-11.82-5.83-12.26-13.2-.32-5.29-.06-10.61-.06-15.91Z"/><path class="cls-3" d="M716.84,144.08v3c0,8.93,0,17.87.14,26.81.11,7.5,7.58,11.63,14.23,8,2.71-1.49,3.62-3.95,3.64-6.84q.12-13.92.19-27.85v-3.08c2.84,0,5.4-.07,8,.06a1.87,1.87,0,0,1,1.21,1.39c0,10.41.11,20.82-.34,31.2-.36,8.11-4.62,12.56-12.69,13.57a41.73,41.73,0,0,1-11.86-.32c-6.65-1.11-10.77-6-11.27-12.72-.34-4.59-.38-9.2-.44-13.81-.07-5.79,0-11.59-.05-17.38,0-1.57.46-2.1,2-2C711.88,144.17,714.18,144.08,716.84,144.08Z"/><path class="cls-3" d="M792.67,156.59l-8.82,2.1c-.18-.35-.36-.62-.49-.92-2-4.73-5-6.75-10-6.65a10.12,10.12,0,0,0-9.87,7.07,27.36,27.36,0,0,0,.15,17.89,10,10,0,0,0,9.7,6.71c4.45.05,7.56-2.08,9.38-6.11.48-1.08.87-2.19,1.41-3.54l8.47,2.56c-.59,6.67-6.45,12.84-13.53,14.41-13.51,3-25-5.32-26.21-19.08-.53-5.93-.14-11.75,2.69-17.15a18.54,18.54,0,0,1,12-9.73,22.93,22.93,0,0,1,16,1C788.39,147.37,791.32,151.2,792.67,156.59Z"/><path class="cls-3" d="M459.85,151.4c0-2.05,0-4.07,0-6.08,0-1.61,1.2-1.26,2.09-1.26,8.52,0,17,0,25.56,0h8.86v7.62h-8.94c-4.62,0-4.62,0-4.62,4.66,0,10.41,0,20.81,0,31.22,0,1.84-.5,2.5-2.36,2.33a26.65,26.65,0,0,0-4.81,0c-1.68.14-2.13-.5-2.12-2.13q.09-15.91,0-31.84c0-4.77.77-4.19-4.19-4.24-2.94,0-5.87,0-8.8,0A3.35,3.35,0,0,1,459.85,151.4Z"/></svg>