<svg preserveAspectRatio="none" width="100%" height="100%" overflow="visible" style="display: block;" viewBox="0 0 40 50.8" fill="none" xmlns="http://www.w3.org/2000/svg">
<path id="Vector" d="M15.5 2H4.7C3.20883 2 2 3.20883 2 4.7V46.1C2 47.5912 3.20883 48.8 4.7 48.8H35.3C36.7912 48.8 38 47.5912 38 46.1V24.5M15.5 2H16.4C28.3293 2 38 11.6706 38 23.6V24.5M15.5 2C19.9735 2 23.6 5.62649 23.6 10.1V13.7C23.6 15.1912 24.8088 16.4 26.3 16.4H29.9C34.3735 16.4 38 20.0265 38 24.5M12.8 32.6L18.2 38L27.2 25.4" stroke="var(--stroke-0, #CAB51C)" stroke-width="4" stroke-linecap="round" stroke-linejoin="round"/>
</svg>
