<svg preserveAspectRatio="none" width="100%" height="100%" overflow="visible" style="display: block;" viewBox="0 0 52 48" fill="none" xmlns="http://www.w3.org/2000/svg">
<path id="Vector" d="M26 12H30M26 20H30M10 28H30M10 36H30M38 12H47C48.6569 12 50 13.3431 50 15V40C50 43.3137 47.3137 46 44 46M38 12V40C38 43.3137 40.6863 46 44 46M38 12V5C38 3.34315 36.6569 2 35 2H5C3.34315 2 2 3.34315 2 5V40C2 43.3137 4.68629 46 8 46H44M10 12H18V20H10V12Z" stroke="var(--stroke-0, #CAB51C)" stroke-width="4" stroke-linecap="round" stroke-linejoin="round"/>
</svg>
