<svg preserveAspectRatio="none" width="100%" height="100%" overflow="visible" style="display: block;" viewBox="0 0 55.9135 44" fill="none" xmlns="http://www.w3.org/2000/svg">
<path id="Vector" d="M18 38C18 40.2091 16.2091 42 14 42C11.7909 42 10 40.2091 10 38M18 38C18 35.7909 16.2091 34 14 34C11.7909 34 10 35.7909 10 38M18 38H34M10 38H5C3.34315 38 2 36.6569 2 35V26.0012M48 38C48 40.2091 46.2091 42 44 42C41.7909 42 40 40.2091 40 38M48 38C48 35.7909 46.2091 34 44 34C41.7909 34 40 35.7909 40 38M48 38L51 37.9999C52.6568 37.9999 54.0098 36.6552 53.9078 35.0015C53.3477 25.9146 50.2594 17.5117 45.3376 10.4876C44.3717 9.10911 42.8077 8.28731 41.1271 8.19507H34M40 38H34M34 8.19507V5.63944C34 4.12613 32.8733 2.84588 31.3681 2.68968C26.9742 2.23371 22.5144 2 18 2C13.4856 2 9.02575 2.23371 4.63194 2.68968C3.12671 2.84589 2 4.12613 2 5.63944V26.0012M34 8.19507V26.0012M34 38V26.0012M34 26.0012H2" stroke="var(--stroke-0, #CAB51C)" stroke-width="4" stroke-linecap="round" stroke-linejoin="round"/>
</svg>
