<svg preserveAspectRatio="none" width="100%" height="100%" overflow="visible" style="display: block;" viewBox="0 0 56.0711 56.0711" fill="none" xmlns="http://www.w3.org/2000/svg">
<path id="Vector" d="M26.4517 36.4517L42 52C44.7615 54.7615 49.2386 54.7615 52 52C54.7615 49.2386 54.7615 44.7615 52 42L36.3288 26.3288M26.4517 36.4517L33.108 28.369C33.9507 27.3457 35.0778 26.7019 36.3288 26.3288M26.4517 36.4517L14.0382 51.5251C12.7477 53.0922 10.824 54 8.79387 54C5.04174 54 2.00004 50.9583 2.00004 47.2062C2.00004 45.1761 2.90789 43.2524 4.47499 41.9619L22.7057 26.9483M36.3288 26.3288C37.7939 25.8919 39.4288 25.8262 40.9757 25.9569C41.3134 25.9855 41.655 26 42 26C48.6275 26 54 20.6275 54 14C54 12.2393 53.6208 10.5672 52.9396 9.06082L44.2032 17.7973C41.2281 17.1143 38.8861 14.7724 38.2032 11.7973L46.9398 3.06067C45.4333 2.37933 43.761 2.00004 42 2.00004C35.3726 2.00004 30 7.37263 30 14C30 14.3451 30.0146 14.6867 30.0431 15.0243C30.2856 17.8922 29.8528 21.0625 27.6311 22.8921L27.3589 23.1163M22.7057 26.9483L11.7574 16H8.00004L2.00004 6.00004L6.00004 2.00004L16 8.00004V11.7574L27.3589 23.1163M22.7057 26.9483L27.3589 23.1163M45 45L38 38M8.97933 47.0002H8.99933V47.0202H8.97933V47.0002Z" stroke="var(--stroke-0, #CAB51C)" stroke-width="4" stroke-linecap="round" stroke-linejoin="round"/>
</svg>
